<svg width="22" height="12" viewBox="0 0 22 12" fill="none" xmlns="http://www.w3.org/2000/svg">
<path d="M21.14 6.85926H2.9408L5.95557 9.85943C6.29197 10.1942 6.29326 10.7383 5.95845 11.0747C5.62365 11.4112 5.07951 11.4124 4.74312 11.0776L0.252837 6.60902C0.252536 6.60876 0.252322 6.60846 0.252064 6.6082C-0.0834696 6.2734 -0.0845438 5.72754 0.251978 5.39162C0.252279 5.39136 0.252493 5.39106 0.252751 5.3908L4.74303 0.92218C5.07938 0.587463 5.62352 0.588623 5.95837 0.925102C6.29317 1.26149 6.29188 1.80559 5.95549 2.1404L2.9408 5.14056H21.14C21.6147 5.14056 21.9994 5.52529 21.9994 5.99991C21.9994 6.47453 21.6147 6.85926 21.14 6.85926Z" fill="#ffffff"/>
</svg>
